<?xml version="1.0" encoding="utf-8"?>
<!-- Generated by IcoMoon.io -->
<!DOCTYPE svg PUBLIC "-//W3C//DTD SVG 1.1//EN" "http://www.w3.org/Graphics/SVG/1.1/DTD/svg11.dtd">
<svg version="1.1" xmlns="http://www.w3.org/2000/svg" xmlns:xlink="http://www.w3.org/1999/xlink" width="176" height="32" viewBox="0 0 176 32">
<g transform="translate(0 0)">
	<path d="M28 16h-5l-7 7-7-7h-5l-4 8v2h32v-2l-4-8zM0 28h32v2h-32v-2zM18 10v-8h-4v8h-7l9 9 9-9h-7z" fill="#000000" />
</g>
<g transform="translate(48 0)">
	<path d="M27 0c2.761 0 5 2.239 5 5 0 1.126-0.372 2.164-1 3l-2 2-7-7 2-2c0.836-0.628 1.874-1 3-1zM2 23l-2 9 9-2 18.5-18.5-7-7-18.5 18.5zM22.362 11.362l-14 14-1.724-1.724 14-14 1.724 1.724z" fill="#000000" />
</g>
<g transform="translate(96 0)">
	<path d="M25 4h-18c-1.657 0-3 1.343-3 3v1h24v-1c0-1.657-1.343-3-3-3zM19.76 2l0.441 3.156h-8.402l0.441-3.156h7.52zM20 0h-8c-0.825 0-1.593 0.668-1.708 1.486l-0.585 4.185c-0.114 0.817 0.467 1.486 1.292 1.486h10c0.825 0 1.407-0.668 1.292-1.486l-0.585-4.185c-0.114-0.817-0.883-1.486-1.708-1.486v0zM25.5 10h-19c-1.1 0-1.918 0.896-1.819 1.992l1.638 18.016c0.1 1.095 1.081 1.992 2.181 1.992h15c1.1 0 2.081-0.896 2.181-1.992l1.638-18.016c0.1-1.095-0.719-1.992-1.819-1.992zM12 28h-3l-1-14h4v14zM18 28h-4v-14h4v14zM23 28h-3v-14h4l-1 14z" fill="#000000" />
</g>
<g transform="translate(144 0)">
	<path d="M0 10h32l-2 20h-28l-2-20zM29 6l1 2h-28l2-4h11l1 2h13z" fill="#000000" />
</g>
</svg>
